<svg width="120" height="120" viewBox="0 0 120 120" fill="none" xmlns="http://www.w3.org/2000/svg">
<path d="M21.4767 43.4819C17.298 47.4299 14.4833 52.7861 13.754 58.7794H13.754L13.753 58.7875L12.6382 68.3807L12.6282 68.467V68.5538C12.6282 72.2723 15.083 75.6825 19.3125 78.1244C23.1534 80.3419 27.9986 81.5194 32.878 81.7204L32.8142 82.4192L32.808 82.4873V82.5556C32.808 87.2703 35.9211 91.6768 41.4672 94.8788C47.7172 98.4873 56.0438 100.018 64.0239 99.5702C64.7601 103.345 67.3669 106.008 70.5342 107.837C74.772 110.284 80.232 111.464 85.6108 111.464C90.9895 111.464 96.4495 110.284 100.687 107.837C104.917 105.395 107.372 101.985 107.372 98.2664C107.372 97.6252 107.297 96.9863 107.15 96.3557L106.193 88.492C105.463 82.4911 102.627 77.1311 98.4287 73.1835C101.477 69.991 103.351 65.6627 103.351 60.8979C103.351 51.0712 95.3849 43.1051 85.5582 43.1051C84.2781 43.1051 83.0288 43.2405 81.8241 43.4979C83.5053 40.2842 84.4565 36.6277 84.4565 32.751C84.4565 19.9298 74.0628 9.53613 61.2416 9.53613C54.6896 9.53613 48.7706 12.252 44.5513 16.6151C41.6604 14.585 38.1362 13.3925 34.3365 13.3925C24.5098 13.3925 16.5437 21.3586 16.5437 31.1852C16.5437 35.9555 18.4224 40.2883 21.4767 43.4819Z" fill="#474C59" stroke="#474C59" stroke-width="3"/>
<path d="M15.2693 58.9607C16.5153 48.7211 24.2322 40.4587 34.3628 38.5171C44.4935 40.4587 52.2629 48.7211 53.5089 58.9607L54.4761 66.9088C54.6095 67.4542 54.6763 68.0041 54.6763 68.5539C54.6763 71.5476 52.6982 74.5413 48.742 76.8254C40.8296 81.3936 28.0011 81.3936 20.0888 76.8254C16.1326 74.5413 14.1545 71.5476 14.1545 68.5539H14.1019L15.2693 58.9607Z" fill="url(#paint0_linear_121_354)"/>
<mask id="mask0_121_354" style="mask-type:alpha" maskUnits="userSpaceOnUse" x="14" y="38" width="41" height="43">
<path d="M15.2693 58.9607C16.5153 48.7211 24.2322 40.4587 34.3628 38.5171C44.4935 40.4587 52.2629 48.7211 53.5089 58.9607L54.4761 66.9088C54.6095 67.4542 54.6763 68.0041 54.6763 68.5539C54.6763 71.5476 52.6982 74.5413 48.742 76.8254C40.8296 81.3936 28.0011 81.3936 20.0888 76.8254C16.1326 74.5413 14.1545 71.5476 14.1545 68.5539H14.1019L15.2693 58.9607Z" fill="url(#paint1_linear_121_354)"/>
</mask>
<g mask="url(#mask0_121_354)">
<g style="mix-blend-mode:overlay" filter="url(#filter0_f_121_354)">
<circle cx="32.7598" cy="32.2567" r="16.2928" fill="black"/>
</g>
</g>
<circle cx="34.3629" cy="31.1852" r="16.2928" fill="url(#paint2_radial_121_354)"/>
<path d="M35.8201 69.7697C37.4808 56.1226 47.7658 45.1104 61.2678 42.5227C74.7699 45.1104 85.1249 56.1226 86.7856 69.7697L88.0746 80.3629C88.2525 81.0899 88.3414 81.8227 88.3414 82.5555C88.3414 86.5455 85.7051 90.5354 80.4323 93.5797C69.8867 99.6682 52.789 99.6682 42.2435 93.5797C36.9707 90.5354 34.3343 86.5455 34.3343 82.5555H34.2643L35.8201 69.7697Z" fill="url(#paint3_linear_121_354)"/>
<mask id="mask1_121_354" style="mask-type:alpha" maskUnits="userSpaceOnUse" x="34" y="42" width="55" height="57">
<path d="M35.8201 69.7697C37.4808 56.1226 47.7658 45.1104 61.2678 42.5227C74.7699 45.1104 85.1249 56.1226 86.7856 69.7697L88.0746 80.3629C88.2525 81.0899 88.3414 81.8227 88.3414 82.5555C88.3414 86.5455 85.7051 90.5354 80.4323 93.5797C69.8867 99.6682 52.789 99.6682 42.2435 93.5797C36.9707 90.5354 34.3343 86.5455 34.3343 82.5555H34.2643L35.8201 69.7697Z" fill="url(#paint4_linear_121_354)"/>
</mask>
<g mask="url(#mask1_121_354)">
<g style="mix-blend-mode:overlay" filter="url(#filter1_f_121_354)">
<circle cx="59.1314" cy="34.179" r="21.7149" fill="black"/>
</g>
</g>
<ellipse cx="61.2679" cy="32.751" rx="21.7149" ry="21.7149" fill="url(#paint5_radial_121_354)"/>
<path d="M66.491 88.6731C67.737 78.4336 75.4538 70.1711 85.5845 68.2295C95.7152 70.1711 103.485 78.4336 104.731 88.6731L105.698 96.6212C105.831 97.1666 105.898 97.7165 105.898 98.2663C105.898 101.26 103.92 104.254 99.9637 106.538C92.0513 111.106 79.2228 111.106 71.3104 106.538C67.3542 104.254 65.3762 101.26 65.3762 98.2663H65.3236L66.491 88.6731Z" fill="url(#paint6_linear_121_354)"/>
<mask id="mask2_121_354" style="mask-type:alpha" maskUnits="userSpaceOnUse" x="65" y="68" width="41" height="42">
<path d="M66.491 88.6731C67.737 78.4336 75.4538 70.1711 85.5845 68.2295C95.7152 70.1711 103.485 78.4336 104.731 88.6731L105.698 96.6212C105.831 97.1666 105.898 97.7165 105.898 98.2663C105.898 101.26 103.92 104.254 99.9637 106.538C92.0513 111.106 79.2228 111.106 71.3104 106.538C67.3542 104.254 65.3762 101.26 65.3762 98.2663H65.3236L66.491 88.6731Z" fill="url(#paint7_linear_121_354)"/>
</mask>
<g mask="url(#mask2_121_354)">
<g style="mix-blend-mode:overlay" filter="url(#filter2_f_121_354)">
<ellipse cx="83.9815" cy="61.9692" rx="16.2928" ry="16.2928" fill="black"/>
</g>
</g>
<circle cx="85.5845" cy="60.8978" r="16.2928" fill="url(#paint8_radial_121_354)"/>
<defs>
<filter id="filter0_f_121_354" x="-13.533" y="-14.0361" width="92.5856" height="92.5856" filterUnits="userSpaceOnUse" color-interpolation-filters="sRGB">
<feFlood flood-opacity="0" result="BackgroundImageFix"/>
<feBlend mode="normal" in="SourceGraphic" in2="BackgroundImageFix" result="shape"/>
<feGaussianBlur stdDeviation="15" result="effect1_foregroundBlur_121_354"/>
</filter>
<filter id="filter1_f_121_354" x="7.4165" y="-17.5359" width="103.43" height="103.43" filterUnits="userSpaceOnUse" color-interpolation-filters="sRGB">
<feFlood flood-opacity="0" result="BackgroundImageFix"/>
<feBlend mode="normal" in="SourceGraphic" in2="BackgroundImageFix" result="shape"/>
<feGaussianBlur stdDeviation="15" result="effect1_foregroundBlur_121_354"/>
</filter>
<filter id="filter2_f_121_354" x="37.6887" y="15.6764" width="92.5856" height="92.5856" filterUnits="userSpaceOnUse" color-interpolation-filters="sRGB">
<feFlood flood-opacity="0" result="BackgroundImageFix"/>
<feBlend mode="normal" in="SourceGraphic" in2="BackgroundImageFix" result="shape"/>
<feGaussianBlur stdDeviation="15" result="effect1_foregroundBlur_121_354"/>
</filter>
<linearGradient id="paint0_linear_121_354" x1="54.6763" y1="59.4678" x2="14.2399" y2="59.4678" gradientUnits="userSpaceOnUse">
<stop stop-color="#E8ECF8"/>
<stop offset="0.223958" stop-color="#D9DFEE"/>
<stop offset="0.859375" stop-color="#B4BDD8"/>
<stop offset="1" stop-color="#BEC5DC"/>
</linearGradient>
<linearGradient id="paint1_linear_121_354" x1="53.0698" y1="59.4678" x2="14.2399" y2="59.4678" gradientUnits="userSpaceOnUse">
<stop stop-color="#D9DFEE"/>
<stop offset="0.489583" stop-color="#C7CEE3"/>
<stop offset="1" stop-color="#B4BDD8"/>
</linearGradient>
<radialGradient id="paint2_radial_121_354" cx="0" cy="0" r="1" gradientUnits="userSpaceOnUse" gradientTransform="translate(41.3984 25.816) rotate(135) scale(24.9398)">
<stop stop-color="white"/>
<stop offset="0.255208" stop-color="#E8ECF9"/>
<stop offset="0.880208" stop-color="#AEB6CF"/>
<stop offset="1" stop-color="#C0C8DE"/>
</radialGradient>
<linearGradient id="paint3_linear_121_354" x1="88.3414" y1="70.4456" x2="34.4482" y2="70.4456" gradientUnits="userSpaceOnUse">
<stop stop-color="#E8ECF8"/>
<stop offset="0.223958" stop-color="#D9DFEE"/>
<stop offset="0.859375" stop-color="#B4BDD8"/>
<stop offset="1" stop-color="#BEC5DC"/>
</linearGradient>
<linearGradient id="paint4_linear_121_354" x1="86.2004" y1="70.4456" x2="34.4482" y2="70.4456" gradientUnits="userSpaceOnUse">
<stop stop-color="#D9DFEE"/>
<stop offset="0.489583" stop-color="#C7CEE3"/>
<stop offset="1" stop-color="#B4BDD8"/>
</linearGradient>
<radialGradient id="paint5_radial_121_354" cx="0" cy="0" r="1" gradientUnits="userSpaceOnUse" gradientTransform="translate(70.6448 25.595) rotate(135) scale(33.2396)">
<stop stop-color="white"/>
<stop offset="0.255208" stop-color="#E8ECF9"/>
<stop offset="0.880208" stop-color="#AEB6CF"/>
<stop offset="1" stop-color="#C0C8DE"/>
</radialGradient>
<linearGradient id="paint6_linear_121_354" x1="105.898" y1="89.1802" x2="65.4616" y2="89.1802" gradientUnits="userSpaceOnUse">
<stop stop-color="#E8ECF8"/>
<stop offset="0.223958" stop-color="#D9DFEE"/>
<stop offset="0.859375" stop-color="#B4BDD8"/>
<stop offset="1" stop-color="#BEC5DC"/>
</linearGradient>
<linearGradient id="paint7_linear_121_354" x1="104.292" y1="89.1802" x2="65.4616" y2="89.1802" gradientUnits="userSpaceOnUse">
<stop stop-color="#D9DFEE"/>
<stop offset="0.489583" stop-color="#C7CEE3"/>
<stop offset="1" stop-color="#B4BDD8"/>
</linearGradient>
<radialGradient id="paint8_radial_121_354" cx="0" cy="0" r="1" gradientUnits="userSpaceOnUse" gradientTransform="translate(92.6201 55.5286) rotate(135) scale(24.9398)">
<stop stop-color="white"/>
<stop offset="0.255208" stop-color="#E8ECF9"/>
<stop offset="0.880208" stop-color="#AEB6CF"/>
<stop offset="1" stop-color="#C0C8DE"/>
</radialGradient>
</defs>
</svg>
